# xmcd
#
# Track frame offsets: 
#        150
#        9933
#        22319
#        35457
#        46653
#        60704
#        77744
#        95059
#        106770
#        119928
#        144511
#        183531
#        204997
#        227174
#        247155
#        265980
#        286649
#        310858
#        325146
#
# Disc length: 4531 seconds
#
# Revision: 0
# Processed by: cddbd v1.5.1PL0 Copyright (c) Steve Scherf et al.
# Submitted via: ExactAudioCopy v0.95a5
#
DISCID=0d11b113
DTITLE=Various Artist - UMPG Blues 1929-Present [CD2]
DYEAR=2004
DGENRE=Blues
TTITLE0=Chuck Berry - Confessin' The Blues
TTITLE1=Bobby Bland - Cry, Cry, Cry
TTITLE2=Little Willie John - Heartbreak (It's Hurtin' Me)
TTITLE3=Lavern Baker - See See Rider
TTITLE4=Albert Collins - Frosty
TTITLE5=Junior Wells - All Night Long
TTITLE6=Albert King - As The Years Go Passing By
TTITLE7=B.B. King - Paying The Cost To Be The Boss
TTITLE8=Muddy Waters - Trouble In Mind
TTITLE9=Junior Wells - Tobacco Road
TTITLE10=B.B. King - Why I Sing The Blues
TTITLE11=John Lee Hooker - Bang Bang Bang Bang
TTITLE12=B.B. King - Chains and Things
TTITLE13=John Lee Hooker and Canned Heat - I Got My Eyes On You
TTITLE14=Jay McShann - Fore Day Rider
TTITLE15=Magic Slim - Ain't Doing Too Bad
TTITLE16=Stevie Ray Vaughn - Texas Flood
TTITLE17=Eric Clapton - How Long Blues
TTITLE18=Buddy Guy - I Smell Trouble
EXTD=
EXTT0=
EXTT1=
EXTT2=
EXTT3=
EXTT4=
EXTT5=
EXTT6=
EXTT7=
EXTT8=
EXTT9=
EXTT10=
EXTT11=
EXTT12=
EXTT13=
EXTT14=
EXTT15=
EXTT16=
EXTT17=
EXTT18=
PLAYORDER=
